<?xml version="1.0" encoding="utf-8"?>
<svg version="1.1" xmlns:xlink="http://www.w3.org/1999/xlink" width="13px" height="13px" viewBox="729 1050 13 13" xmlns="http://www.w3.org/2000/svg">
  <path d="M 735.5 1050  C 739.14 1050  742 1052.86  742 1056.5  C 742 1060.14  739.14 1063  735.5 1063  C 731.86 1063  729 1060.14  729 1056.5  C 729 1052.86  731.86 1050  735.5 1050  Z " fill-rule="nonzero" fill="rgba(240, 240, 240, 1)" stroke="none" class="fill" />
  <path d="M 735.5 1050.5  C 738.86 1050.5  741.5 1053.14  741.5 1056.5  C 741.5 1059.86  738.86 1062.5  735.5 1062.5  C 732.14 1062.5  729.5 1059.86  729.5 1056.5  C 729.5 1053.14  732.14 1050.5  735.5 1050.5  Z " stroke-width="1" stroke-dasharray="0" stroke="rgba(121, 121, 121, 1)" fill="none" class="stroke" stroke-dashoffset="0.5" />
  <path d="M 735.5 1059.75  C 733.68 1059.75  732.25 1058.32  732.25 1056.5  C 732.25 1054.68  733.68 1053.25  735.5 1053.25  C 737.32 1053.25  738.75 1054.68  738.75 1056.5  C 738.75 1058.32  737.32 1059.75  735.5 1059.75  " fill-rule="nonzero" fill="rgba(121, 121, 121, 1)" stroke="none" class="stroke btn_check" />
</svg>