<?xml version="1.0" encoding="utf-8"?>
<svg version="1.1" xmlns:xlink="http://www.w3.org/1999/xlink" width="13px" height="13px" viewBox="729 1075 13 13" xmlns="http://www.w3.org/2000/svg">
  <path d="M 735.5 1075  C 739.14 1075  742 1077.86  742 1081.5  C 742 1085.14  739.14 1088  735.5 1088  C 731.86 1088  729 1085.14  729 1081.5  C 729 1077.86  731.86 1075  735.5 1075  Z " fill-rule="nonzero" fill="rgba(240, 240, 240, 1)" stroke="none" class="fill" />
  <path d="M 735.5 1075.5  C 738.86 1075.5  741.5 1078.14  741.5 1081.5  C 741.5 1084.86  738.86 1087.5  735.5 1087.5  C 732.14 1087.5  729.5 1084.86  729.5 1081.5  C 729.5 1078.14  732.14 1075.5  735.5 1075.5  Z " stroke-width="1" stroke-dasharray="0" stroke="rgba(121, 121, 121, 1)" fill="none" class="stroke" stroke-dashoffset="0.5" />
  <path d="M 735.5 1084.75  C 733.68 1084.75  732.25 1083.32  732.25 1081.5  C 732.25 1079.68  733.68 1078.25  735.5 1078.25  C 737.32 1078.25  738.75 1079.68  738.75 1081.5  C 738.75 1083.32  737.32 1084.75  735.5 1084.75  " fill-rule="nonzero" fill="rgba(121, 121, 121, 1)" stroke="none" class="stroke btn_check" />
</svg>