<?xml version="1.0" encoding="utf-8"?>
<svg version="1.1" xmlns:xlink="http://www.w3.org/1999/xlink" width="13px" height="13px" viewBox="488 1162 13 13" xmlns="http://www.w3.org/2000/svg">
  <path d="M 494.5 1162  C 498.14 1162  501 1164.86  501 1168.5  C 501 1172.14  498.14 1175  494.5 1175  C 490.86 1175  488 1172.14  488 1168.5  C 488 1164.86  490.86 1162  494.5 1162  Z " fill-rule="nonzero" fill="rgba(240, 240, 240, 1)" stroke="none" class="fill" />
  <path d="M 494.5 1162.5  C 497.86 1162.5  500.5 1165.14  500.5 1168.5  C 500.5 1171.86  497.86 1174.5  494.5 1174.5  C 491.14 1174.5  488.5 1171.86  488.5 1168.5  C 488.5 1165.14  491.14 1162.5  494.5 1162.5  Z " stroke-width="1" stroke-dasharray="0" stroke="rgba(121, 121, 121, 1)" fill="none" class="stroke" stroke-dashoffset="0.5" />
  <path d="M 494.5 1171.75  C 492.68 1171.75  491.25 1170.32  491.25 1168.5  C 491.25 1166.68  492.68 1165.25  494.5 1165.25  C 496.32 1165.25  497.75 1166.68  497.75 1168.5  C 497.75 1170.32  496.32 1171.75  494.5 1171.75  " fill-rule="nonzero" fill="rgba(121, 121, 121, 1)" stroke="none" class="stroke btn_check" />
</svg>