<?xml version="1.0" encoding="utf-8"?>
<svg version="1.1" xmlns:xlink="http://www.w3.org/1999/xlink" width="13px" height="13px" viewBox="488 1187 13 13" xmlns="http://www.w3.org/2000/svg">
  <path d="M 494.5 1187  C 498.14 1187  501 1189.86  501 1193.5  C 501 1197.14  498.14 1200  494.5 1200  C 490.86 1200  488 1197.14  488 1193.5  C 488 1189.86  490.86 1187  494.5 1187  Z " fill-rule="nonzero" fill="rgba(255, 255, 255, 1)" stroke="none" class="fill" />
  <path d="M 494.5 1187.5  C 497.86 1187.5  500.5 1190.14  500.5 1193.5  C 500.5 1196.86  497.86 1199.5  494.5 1199.5  C 491.14 1199.5  488.5 1196.86  488.5 1193.5  C 488.5 1190.14  491.14 1187.5  494.5 1187.5  Z " stroke-width="1" stroke-dasharray="0" stroke="rgba(121, 121, 121, 1)" fill="none" class="stroke" stroke-dashoffset="0.5" />
  <path d="M 494.5 1196.75  C 492.68 1196.75  491.25 1195.32  491.25 1193.5  C 491.25 1191.68  492.68 1190.25  494.5 1190.25  C 496.32 1190.25  497.75 1191.68  497.75 1193.5  C 497.75 1195.32  496.32 1196.75  494.5 1196.75  " fill-rule="nonzero" fill="rgba(121, 121, 121, 1)" stroke="none" class="stroke btn_check" />
</svg>