<?xml version="1.0" encoding="utf-8"?>
<svg version="1.1" xmlns:xlink="http://www.w3.org/1999/xlink" width="13px" height="13px" viewBox="488 1237 13 13" xmlns="http://www.w3.org/2000/svg">
  <path d="M 494.5 1237  C 498.14 1237  501 1239.86  501 1243.5  C 501 1247.14  498.14 1250  494.5 1250  C 490.86 1250  488 1247.14  488 1243.5  C 488 1239.86  490.86 1237  494.5 1237  Z " fill-rule="nonzero" fill="rgba(255, 255, 255, 1)" stroke="none" class="fill" />
  <path d="M 494.5 1237.5  C 497.86 1237.5  500.5 1240.14  500.5 1243.5  C 500.5 1246.86  497.86 1249.5  494.5 1249.5  C 491.14 1249.5  488.5 1246.86  488.5 1243.5  C 488.5 1240.14  491.14 1237.5  494.5 1237.5  Z " stroke-width="1" stroke-dasharray="0" stroke="rgba(121, 121, 121, 1)" fill="none" class="stroke" stroke-dashoffset="0.5" />
  <path d="M 494.5 1246.75  C 492.68 1246.75  491.25 1245.32  491.25 1243.5  C 491.25 1241.68  492.68 1240.25  494.5 1240.25  C 496.32 1240.25  497.75 1241.68  497.75 1243.5  C 497.75 1245.32  496.32 1246.75  494.5 1246.75  " fill-rule="nonzero" fill="rgba(121, 121, 121, 1)" stroke="none" class="stroke btn_check" />
</svg>