<?xml version="1.0" encoding="utf-8"?>
<svg version="1.1" xmlns:xlink="http://www.w3.org/1999/xlink" width="168px" height="168px" xmlns="http://www.w3.org/2000/svg">
  <defs>
    <pattern id="BGPattern" patternUnits="userSpaceOnUse" alignment="0 0" imageRepeat="None" />
    <mask fill="white" id="Clip1">
      <path d="M 0 69  C 0 30.359999999999996  30.359999999999996 0  69 0  C 107.64 0  138 30.359999999999996  138 69  C 138 107.64  107.64 138  69 138  C 30.359999999999996 138  0 107.64  0 69  Z " fill-rule="evenodd" />
    </mask>
  </defs>
  <g transform="matrix(1 0 0 1 -98 -1 )">
    <path d="M 0 69  C 0 30.359999999999996  30.359999999999996 0  69 0  C 107.64 0  138 30.359999999999996  138 69  C 138 107.64  107.64 138  69 138  C 30.359999999999996 138  0 107.64  0 69  Z " fill-rule="nonzero" fill="rgba(255, 255, 255, 1)" stroke="none" transform="matrix(1 0 0 1 103 16 )" class="fill" />
    <path d="M 0 69  C 0 30.359999999999996  30.359999999999996 0  69 0  C 107.64 0  138 30.359999999999996  138 69  C 138 107.64  107.64 138  69 138  C 30.359999999999996 138  0 107.64  0 69  Z " stroke-width="0" stroke-dasharray="0" stroke="rgba(121, 121, 121, 1)" fill="none" transform="matrix(1 0 0 1 103 16 )" class="stroke" mask="url(#Clip1)" />
  </g>
  <style>svg { filter: drop-shadow(10px 0px 7.5px rgba(0, 0, 0, 0.34901960784313724)); }</style>
</svg>