<?xml version="1.0" encoding="utf-8"?>
<svg version="1.1" xmlns:xlink="http://www.w3.org/1999/xlink" width="50px" height="50px" xmlns="http://www.w3.org/2000/svg">
  <defs>
    <pattern id="BGPattern" patternUnits="userSpaceOnUse" alignment="0 0" imageRepeat="None" />
    <mask fill="white" id="Clip3">
      <path d="M 40.95052083333333 37.95572916666667  C 41.42795138888889 36.80555555555555  41.66666666666667 35.709635416666664  41.66666666666667 34.66796875  C 41.66666666666667 34.42925347222222  41.644965277777786 34.25564236111111  41.6015625 34.147135416666664  C 41.55815972222223 34.03862847222222  41.36284722222223 33.859592013888886  41.015625 33.610026041666664  C 40.668402777777786 33.36046006944444  40.228949652777786 33.089192708333336  39.697265625 32.796223958333336  C 39.16558159722223 32.503255208333336  38.650173611111114 32.21571180555555  38.15104166666667 31.93359375  C 37.65190972222223 31.651475694444443  37.158203125 31.380208333333336  36.669921875 31.119791666666664  C 36.181640625 30.859375  35.87239583333333 30.696614583333336  35.7421875 30.631510416666664  C 35.63368055555556 30.56640625  35.427517361111114 30.42534722222222  35.12369791666667 30.208333333333336  C 34.81987847222223 29.991319444444443  34.548611111111114 29.82855902777778  34.30989583333333 29.720052083333336  C 34.07118055555556 29.611545138888886  33.84331597222223 29.557291666666664  33.62630208333333 29.557291666666664  C 33.30078125 29.557291666666664  32.90473090277778 29.77973090277778  32.43815104166667 30.224609375  C 31.971571180555557 30.66948784722222  31.542968750000007 31.15776909722222  31.15234375 31.689453125  C 30.761718750000007 32.22113715277778  30.34396701388889 32.70941840277778  29.899088541666668 33.154296875  C 29.454210069444446 33.59917534722222  29.090711805555557 33.821614583333336  28.80859375 33.821614583333336  C 28.65668402777778 33.821614583333336  28.477647569444446 33.78363715277778  28.271484375 33.707682291666664  C 28.065321180555557 33.63172743055555  27.897135416666668 33.561197916666664  27.766927083333332 33.49609375  C 27.63671875 33.430989583333336  27.452256944444446 33.32790798611111  27.213541666666668 33.186848958333336  C 26.97482638888889 33.04578993055555  26.822916666666668 32.95355902777778  26.7578125 32.91015625  C 24.609375 31.716579861111104  22.764756944444446 30.343967013888886  21.223958333333336 28.792317708333336  C 19.683159722222225 27.24066840277778  18.30512152777778 25.390625  17.08984375 23.2421875  C 17.046440972222225 23.177083333333332  16.954210069444446 23.02517361111111  16.813151041666664 22.786458333333332  C 16.672092013888893 22.547743055555554  16.569010416666668 22.36328125  16.50390625 22.233072916666668  C 16.438802083333336 22.102864583333332  16.368272569444446 21.934678819444443  16.292317708333336 21.728515625  C 16.216362847222225 21.522352430555554  16.178385416666664 21.34331597222222  16.178385416666664 21.19140625  C 16.178385416666664 20.909288194444443  16.40082465277778 20.545789930555554  16.845703125 20.100911458333332  C 17.290581597222225 19.65603298611111  17.778862847222225 19.23828125  18.310546875 18.84765625  C 18.84223090277778 18.45703125  19.33051215277778 18.028428819444443  19.775390625 17.561848958333332  C 20.220269097222225 17.09526909722222  20.442708333333336 16.69921875  20.442708333333336 16.373697916666668  C 20.442708333333336 16.156684027777775  20.388454861111114 15.928819444444443  20.279947916666664 15.690104166666668  C 20.171440972222225 15.451388888888884  20.008680555555557 15.180121527777773  19.791666666666664 14.876302083333332  C 19.57465277777778 14.572482638888884  19.43359375 14.366319444444443  19.368489583333336 14.2578125  C 19.303385416666664 14.127604166666668  19.140625 13.818359375  18.880208333333336 13.330078125  C 18.619791666666664 12.841796875  18.348524305555557 12.348090277777773  18.06640625 11.848958333333332  C 17.784288194444446 11.349826388888884  17.496744791666664 10.834418402777773  17.203776041666664 10.302734375  C 16.910807291666664 9.771050347222216  16.639539930555554 9.331597222222216  16.389973958333336 8.984375  C 16.140407986111114 8.637152777777773  15.961371527777779 8.441840277777773  15.852864583333334 8.3984375  C 15.74435763888889 8.355034722222216  15.570746527777779 8.333333333333332  15.33203125 8.333333333333332  C 14.290364583333334 8.333333333333332  13.194444444444445 8.57204861111111  12.044270833333332 9.049479166666668  C 11.046006944444446 9.505208333333332  10.17795138888889 10.530598958333332  9.440104166666668 12.125651041666668  C 8.702256944444446 13.720703125  8.333333333333332 15.13671875  8.333333333333332 16.373697916666668  C 8.333333333333332 16.72092013888889  8.360460069444446 17.08984375  8.414713541666668 17.48046875  C 8.46896701388889 17.87109375  8.523220486111112 18.202039930555554  8.577473958333332 18.473307291666668  C 8.631727430555557 18.744574652777775  8.729383680555557 19.102647569444443  8.870442708333332 19.547526041666668  C 9.011501736111112 19.99240451388889  9.120008680555557 20.3125  9.195963541666668 20.5078125  C 9.271918402777779 20.703125  9.407552083333332 21.061197916666668  9.602864583333332 21.58203125  C 9.798177083333332 22.102864583333332  9.917534722222223 22.428385416666668  9.9609375 22.55859375  C 11.263020833333332 26.11762152777778  13.612196180555555 29.59526909722222  17.008463541666664 32.991536458333336  C 20.40473090277778 36.38780381944444  23.882378472222225 38.73697916666667  27.44140625 40.0390625  C 27.571614583333336 40.08246527777777  27.897135416666668 40.20182291666667  28.41796875 40.39713541666667  C 28.938802083333336 40.59244791666667  29.296875000000007 40.72808159722223  29.4921875 40.80403645833333  C 29.687500000000007 40.87999131944444  30.007595486111114 40.98849826388889  30.452473958333332 41.12955729166667  C 30.897352430555557 41.27061631944444  31.255425347222225 41.36827256944444  31.526692708333332 41.42252604166667  C 31.797960069444446 41.47677951388889  32.12890625000001 41.53103298611111  32.51953125 41.58528645833333  C 32.91015625000001 41.63953993055556  33.279079861111114 41.66666666666667  33.62630208333333 41.66666666666667  C 34.86328125 41.66666666666667  36.279296875 41.29774305555556  37.87434895833333 40.55989583333333  C 39.46940104166667 39.82204861111111  40.49479166666667 38.95399305555556  40.95052083333333 37.95572916666667  Z M 47.24934895833333 2.7506510416666687  C 49.08311631944444 4.584418402777773  50 6.792534722222215  50 9.375  L 50 40.625  C 50 43.20746527777777  49.08311631944444 45.41558159722223  47.24934895833333 47.24934895833333  C 45.41558159722223 49.08311631944444  43.207465277777786 50  40.625 50  L 9.375 50  C 6.792534722222222 50  4.584418402777779 49.08311631944444  2.750651041666667 47.24934895833333  C 0.9168836805555555 45.41558159722223  0 43.20746527777777  0 40.625  L 0 9.375  C 0 6.792534722222215  0.9168836805555555 4.584418402777773  2.750651041666667 2.7506510416666687  C 4.584418402777779 0.9168836805555525  6.792534722222222 0  9.375 0  L 40.625 0  C 43.207465277777786 0  45.41558159722223 0.9168836805555525  47.24934895833333 2.7506510416666687  Z " fill-rule="evenodd" />
    </mask>
  </defs>
  <g transform="matrix(1 0 0 1 -422 -460 )">
    <path d="M 40.95052083333333 37.95572916666667  C 41.42795138888889 36.80555555555555  41.66666666666667 35.709635416666664  41.66666666666667 34.66796875  C 41.66666666666667 34.42925347222222  41.644965277777786 34.25564236111111  41.6015625 34.147135416666664  C 41.55815972222223 34.03862847222222  41.36284722222223 33.859592013888886  41.015625 33.610026041666664  C 40.668402777777786 33.36046006944444  40.228949652777786 33.089192708333336  39.697265625 32.796223958333336  C 39.16558159722223 32.503255208333336  38.650173611111114 32.21571180555555  38.15104166666667 31.93359375  C 37.65190972222223 31.651475694444443  37.158203125 31.380208333333336  36.669921875 31.119791666666664  C 36.181640625 30.859375  35.87239583333333 30.696614583333336  35.7421875 30.631510416666664  C 35.63368055555556 30.56640625  35.427517361111114 30.42534722222222  35.12369791666667 30.208333333333336  C 34.81987847222223 29.991319444444443  34.548611111111114 29.82855902777778  34.30989583333333 29.720052083333336  C 34.07118055555556 29.611545138888886  33.84331597222223 29.557291666666664  33.62630208333333 29.557291666666664  C 33.30078125 29.557291666666664  32.90473090277778 29.77973090277778  32.43815104166667 30.224609375  C 31.971571180555557 30.66948784722222  31.542968750000007 31.15776909722222  31.15234375 31.689453125  C 30.761718750000007 32.22113715277778  30.34396701388889 32.70941840277778  29.899088541666668 33.154296875  C 29.454210069444446 33.59917534722222  29.090711805555557 33.821614583333336  28.80859375 33.821614583333336  C 28.65668402777778 33.821614583333336  28.477647569444446 33.78363715277778  28.271484375 33.707682291666664  C 28.065321180555557 33.63172743055555  27.897135416666668 33.561197916666664  27.766927083333332 33.49609375  C 27.63671875 33.430989583333336  27.452256944444446 33.32790798611111  27.213541666666668 33.186848958333336  C 26.97482638888889 33.04578993055555  26.822916666666668 32.95355902777778  26.7578125 32.91015625  C 24.609375 31.716579861111104  22.764756944444446 30.343967013888886  21.223958333333336 28.792317708333336  C 19.683159722222225 27.24066840277778  18.30512152777778 25.390625  17.08984375 23.2421875  C 17.046440972222225 23.177083333333332  16.954210069444446 23.02517361111111  16.813151041666664 22.786458333333332  C 16.672092013888893 22.547743055555554  16.569010416666668 22.36328125  16.50390625 22.233072916666668  C 16.438802083333336 22.102864583333332  16.368272569444446 21.934678819444443  16.292317708333336 21.728515625  C 16.216362847222225 21.522352430555554  16.178385416666664 21.34331597222222  16.178385416666664 21.19140625  C 16.178385416666664 20.909288194444443  16.40082465277778 20.545789930555554  16.845703125 20.100911458333332  C 17.290581597222225 19.65603298611111  17.778862847222225 19.23828125  18.310546875 18.84765625  C 18.84223090277778 18.45703125  19.33051215277778 18.028428819444443  19.775390625 17.561848958333332  C 20.220269097222225 17.09526909722222  20.442708333333336 16.69921875  20.442708333333336 16.373697916666668  C 20.442708333333336 16.156684027777775  20.388454861111114 15.928819444444443  20.279947916666664 15.690104166666668  C 20.171440972222225 15.451388888888884  20.008680555555557 15.180121527777773  19.791666666666664 14.876302083333332  C 19.57465277777778 14.572482638888884  19.43359375 14.366319444444443  19.368489583333336 14.2578125  C 19.303385416666664 14.127604166666668  19.140625 13.818359375  18.880208333333336 13.330078125  C 18.619791666666664 12.841796875  18.348524305555557 12.348090277777773  18.06640625 11.848958333333332  C 17.784288194444446 11.349826388888884  17.496744791666664 10.834418402777773  17.203776041666664 10.302734375  C 16.910807291666664 9.771050347222216  16.639539930555554 9.331597222222216  16.389973958333336 8.984375  C 16.140407986111114 8.637152777777773  15.961371527777779 8.441840277777773  15.852864583333334 8.3984375  C 15.74435763888889 8.355034722222216  15.570746527777779 8.333333333333332  15.33203125 8.333333333333332  C 14.290364583333334 8.333333333333332  13.194444444444445 8.57204861111111  12.044270833333332 9.049479166666668  C 11.046006944444446 9.505208333333332  10.17795138888889 10.530598958333332  9.440104166666668 12.125651041666668  C 8.702256944444446 13.720703125  8.333333333333332 15.13671875  8.333333333333332 16.373697916666668  C 8.333333333333332 16.72092013888889  8.360460069444446 17.08984375  8.414713541666668 17.48046875  C 8.46896701388889 17.87109375  8.523220486111112 18.202039930555554  8.577473958333332 18.473307291666668  C 8.631727430555557 18.744574652777775  8.729383680555557 19.102647569444443  8.870442708333332 19.547526041666668  C 9.011501736111112 19.99240451388889  9.120008680555557 20.3125  9.195963541666668 20.5078125  C 9.271918402777779 20.703125  9.407552083333332 21.061197916666668  9.602864583333332 21.58203125  C 9.798177083333332 22.102864583333332  9.917534722222223 22.428385416666668  9.9609375 22.55859375  C 11.263020833333332 26.11762152777778  13.612196180555555 29.59526909722222  17.008463541666664 32.991536458333336  C 20.40473090277778 36.38780381944444  23.882378472222225 38.73697916666667  27.44140625 40.0390625  C 27.571614583333336 40.08246527777777  27.897135416666668 40.20182291666667  28.41796875 40.39713541666667  C 28.938802083333336 40.59244791666667  29.296875000000007 40.72808159722223  29.4921875 40.80403645833333  C 29.687500000000007 40.87999131944444  30.007595486111114 40.98849826388889  30.452473958333332 41.12955729166667  C 30.897352430555557 41.27061631944444  31.255425347222225 41.36827256944444  31.526692708333332 41.42252604166667  C 31.797960069444446 41.47677951388889  32.12890625000001 41.53103298611111  32.51953125 41.58528645833333  C 32.91015625000001 41.63953993055556  33.279079861111114 41.66666666666667  33.62630208333333 41.66666666666667  C 34.86328125 41.66666666666667  36.279296875 41.29774305555556  37.87434895833333 40.55989583333333  C 39.46940104166667 39.82204861111111  40.49479166666667 38.95399305555556  40.95052083333333 37.95572916666667  Z M 47.24934895833333 2.7506510416666687  C 49.08311631944444 4.584418402777773  50 6.792534722222215  50 9.375  L 50 40.625  C 50 43.20746527777777  49.08311631944444 45.41558159722223  47.24934895833333 47.24934895833333  C 45.41558159722223 49.08311631944444  43.207465277777786 50  40.625 50  L 9.375 50  C 6.792534722222222 50  4.584418402777779 49.08311631944444  2.750651041666667 47.24934895833333  C 0.9168836805555555 45.41558159722223  0 43.20746527777777  0 40.625  L 0 9.375  C 0 6.792534722222215  0.9168836805555555 4.584418402777773  2.750651041666667 2.7506510416666687  C 4.584418402777779 0.9168836805555525  6.792534722222222 0  9.375 0  L 40.625 0  C 43.207465277777786 0  45.41558159722223 0.9168836805555525  47.24934895833333 2.7506510416666687  Z " fill-rule="nonzero" fill="rgba(0, 0, 0, 1)" stroke="none" transform="matrix(1 0 0 1 422 460 )" class="fill" />
    <path d="M 40.95052083333333 37.95572916666667  C 41.42795138888889 36.80555555555555  41.66666666666667 35.709635416666664  41.66666666666667 34.66796875  C 41.66666666666667 34.42925347222222  41.644965277777786 34.25564236111111  41.6015625 34.147135416666664  C 41.55815972222223 34.03862847222222  41.36284722222223 33.859592013888886  41.015625 33.610026041666664  C 40.668402777777786 33.36046006944444  40.228949652777786 33.089192708333336  39.697265625 32.796223958333336  C 39.16558159722223 32.503255208333336  38.650173611111114 32.21571180555555  38.15104166666667 31.93359375  C 37.65190972222223 31.651475694444443  37.158203125 31.380208333333336  36.669921875 31.119791666666664  C 36.181640625 30.859375  35.87239583333333 30.696614583333336  35.7421875 30.631510416666664  C 35.63368055555556 30.56640625  35.427517361111114 30.42534722222222  35.12369791666667 30.208333333333336  C 34.81987847222223 29.991319444444443  34.548611111111114 29.82855902777778  34.30989583333333 29.720052083333336  C 34.07118055555556 29.611545138888886  33.84331597222223 29.557291666666664  33.62630208333333 29.557291666666664  C 33.30078125 29.557291666666664  32.90473090277778 29.77973090277778  32.43815104166667 30.224609375  C 31.971571180555557 30.66948784722222  31.542968750000007 31.15776909722222  31.15234375 31.689453125  C 30.761718750000007 32.22113715277778  30.34396701388889 32.70941840277778  29.899088541666668 33.154296875  C 29.454210069444446 33.59917534722222  29.090711805555557 33.821614583333336  28.80859375 33.821614583333336  C 28.65668402777778 33.821614583333336  28.477647569444446 33.78363715277778  28.271484375 33.707682291666664  C 28.065321180555557 33.63172743055555  27.897135416666668 33.561197916666664  27.766927083333332 33.49609375  C 27.63671875 33.430989583333336  27.452256944444446 33.32790798611111  27.213541666666668 33.186848958333336  C 26.97482638888889 33.04578993055555  26.822916666666668 32.95355902777778  26.7578125 32.91015625  C 24.609375 31.716579861111104  22.764756944444446 30.343967013888886  21.223958333333336 28.792317708333336  C 19.683159722222225 27.24066840277778  18.30512152777778 25.390625  17.08984375 23.2421875  C 17.046440972222225 23.177083333333332  16.954210069444446 23.02517361111111  16.813151041666664 22.786458333333332  C 16.672092013888893 22.547743055555554  16.569010416666668 22.36328125  16.50390625 22.233072916666668  C 16.438802083333336 22.102864583333332  16.368272569444446 21.934678819444443  16.292317708333336 21.728515625  C 16.216362847222225 21.522352430555554  16.178385416666664 21.34331597222222  16.178385416666664 21.19140625  C 16.178385416666664 20.909288194444443  16.40082465277778 20.545789930555554  16.845703125 20.100911458333332  C 17.290581597222225 19.65603298611111  17.778862847222225 19.23828125  18.310546875 18.84765625  C 18.84223090277778 18.45703125  19.33051215277778 18.028428819444443  19.775390625 17.561848958333332  C 20.220269097222225 17.09526909722222  20.442708333333336 16.69921875  20.442708333333336 16.373697916666668  C 20.442708333333336 16.156684027777775  20.388454861111114 15.928819444444443  20.279947916666664 15.690104166666668  C 20.171440972222225 15.451388888888884  20.008680555555557 15.180121527777773  19.791666666666664 14.876302083333332  C 19.57465277777778 14.572482638888884  19.43359375 14.366319444444443  19.368489583333336 14.2578125  C 19.303385416666664 14.127604166666668  19.140625 13.818359375  18.880208333333336 13.330078125  C 18.619791666666664 12.841796875  18.348524305555557 12.348090277777773  18.06640625 11.848958333333332  C 17.784288194444446 11.349826388888884  17.496744791666664 10.834418402777773  17.203776041666664 10.302734375  C 16.910807291666664 9.771050347222216  16.639539930555554 9.331597222222216  16.389973958333336 8.984375  C 16.140407986111114 8.637152777777773  15.961371527777779 8.441840277777773  15.852864583333334 8.3984375  C 15.74435763888889 8.355034722222216  15.570746527777779 8.333333333333332  15.33203125 8.333333333333332  C 14.290364583333334 8.333333333333332  13.194444444444445 8.57204861111111  12.044270833333332 9.049479166666668  C 11.046006944444446 9.505208333333332  10.17795138888889 10.530598958333332  9.440104166666668 12.125651041666668  C 8.702256944444446 13.720703125  8.333333333333332 15.13671875  8.333333333333332 16.373697916666668  C 8.333333333333332 16.72092013888889  8.360460069444446 17.08984375  8.414713541666668 17.48046875  C 8.46896701388889 17.87109375  8.523220486111112 18.202039930555554  8.577473958333332 18.473307291666668  C 8.631727430555557 18.744574652777775  8.729383680555557 19.102647569444443  8.870442708333332 19.547526041666668  C 9.011501736111112 19.99240451388889  9.120008680555557 20.3125  9.195963541666668 20.5078125  C 9.271918402777779 20.703125  9.407552083333332 21.061197916666668  9.602864583333332 21.58203125  C 9.798177083333332 22.102864583333332  9.917534722222223 22.428385416666668  9.9609375 22.55859375  C 11.263020833333332 26.11762152777778  13.612196180555555 29.59526909722222  17.008463541666664 32.991536458333336  C 20.40473090277778 36.38780381944444  23.882378472222225 38.73697916666667  27.44140625 40.0390625  C 27.571614583333336 40.08246527777777  27.897135416666668 40.20182291666667  28.41796875 40.39713541666667  C 28.938802083333336 40.59244791666667  29.296875000000007 40.72808159722223  29.4921875 40.80403645833333  C 29.687500000000007 40.87999131944444  30.007595486111114 40.98849826388889  30.452473958333332 41.12955729166667  C 30.897352430555557 41.27061631944444  31.255425347222225 41.36827256944444  31.526692708333332 41.42252604166667  C 31.797960069444446 41.47677951388889  32.12890625000001 41.53103298611111  32.51953125 41.58528645833333  C 32.91015625000001 41.63953993055556  33.279079861111114 41.66666666666667  33.62630208333333 41.66666666666667  C 34.86328125 41.66666666666667  36.279296875 41.29774305555556  37.87434895833333 40.55989583333333  C 39.46940104166667 39.82204861111111  40.49479166666667 38.95399305555556  40.95052083333333 37.95572916666667  Z " stroke-width="0" stroke-dasharray="0" stroke="rgba(255, 255, 255, 0)" fill="none" transform="matrix(1 0 0 1 422 460 )" class="stroke" mask="url(#Clip3)" />
    <path d="M 47.24934895833333 2.7506510416666687  C 49.08311631944444 4.584418402777773  50 6.792534722222215  50 9.375  L 50 40.625  C 50 43.20746527777777  49.08311631944444 45.41558159722223  47.24934895833333 47.24934895833333  C 45.41558159722223 49.08311631944444  43.207465277777786 50  40.625 50  L 9.375 50  C 6.792534722222222 50  4.584418402777779 49.08311631944444  2.750651041666667 47.24934895833333  C 0.9168836805555555 45.41558159722223  0 43.20746527777777  0 40.625  L 0 9.375  C 0 6.792534722222215  0.9168836805555555 4.584418402777773  2.750651041666667 2.7506510416666687  C 4.584418402777779 0.9168836805555525  6.792534722222222 0  9.375 0  L 40.625 0  C 43.207465277777786 0  45.41558159722223 0.9168836805555525  47.24934895833333 2.7506510416666687  Z " stroke-width="0" stroke-dasharray="0" stroke="rgba(255, 255, 255, 0)" fill="none" transform="matrix(1 0 0 1 422 460 )" class="stroke" mask="url(#Clip3)" />
  </g>
</svg>