<?xml version="1.0" encoding="utf-8"?>
<svg version="1.1" xmlns:xlink="http://www.w3.org/1999/xlink" width="13px" height="13px" viewBox="729 1125 13 13" xmlns="http://www.w3.org/2000/svg">
  <path d="M 735.5 1125  C 739.14 1125  742 1127.86  742 1131.5  C 742 1135.14  739.14 1138  735.5 1138  C 731.86 1138  729 1135.14  729 1131.5  C 729 1127.86  731.86 1125  735.5 1125  Z " fill-rule="nonzero" fill="rgba(240, 240, 240, 1)" stroke="none" class="fill" />
  <path d="M 735.5 1125.5  C 738.86 1125.5  741.5 1128.14  741.5 1131.5  C 741.5 1134.86  738.86 1137.5  735.5 1137.5  C 732.14 1137.5  729.5 1134.86  729.5 1131.5  C 729.5 1128.14  732.14 1125.5  735.5 1125.5  Z " stroke-width="1" stroke-dasharray="0" stroke="rgba(121, 121, 121, 1)" fill="none" class="stroke" stroke-dashoffset="0.5" />
  <path d="M 735.5 1134.75  C 733.68 1134.75  732.25 1133.32  732.25 1131.5  C 732.25 1129.68  733.68 1128.25  735.5 1128.25  C 737.32 1128.25  738.75 1129.68  738.75 1131.5  C 738.75 1133.32  737.32 1134.75  735.5 1134.75  " fill-rule="nonzero" fill="rgba(121, 121, 121, 1)" stroke="none" class="stroke btn_check" />
</svg>